<svg width="54" height="50" viewBox="0 0 54 50" fill="none" xmlns="http://www.w3.org/2000/svg">
<path d="M42.0931 49.5007C41.7247 49.5021 41.3653 49.3873 41.066 49.1726L26.9993 38.9744L12.9326 49.1726C12.6321 49.3905 12.27 49.5073 11.8988 49.5059C11.5275 49.5046 11.1663 49.3852 10.8674 49.165C10.5684 48.9449 10.3473 48.6354 10.2358 48.2812C10.1244 47.9271 10.1284 47.5467 10.2474 47.1951L15.7337 30.9452L1.51493 21.1944C1.20694 20.9835 0.974494 20.6795 0.851542 20.327C0.72859 19.9746 0.721582 19.592 0.831541 19.2352C0.9415 18.8785 1.16266 18.5662 1.46272 18.3441C1.76277 18.122 2.12599 18.0017 2.49931 18.0007H20.0409L25.3346 1.70929C25.4487 1.35756 25.6712 1.05099 25.9702 0.833566C26.2693 0.616138 26.6296 0.499023 26.9993 0.499023C27.3691 0.499023 27.7293 0.616138 28.0284 0.833566C28.3274 1.05099 28.55 1.35756 28.664 1.70929L33.9578 18.0062H51.4993C51.8731 18.006 52.2371 18.1255 52.5381 18.3472C52.839 18.5688 53.0611 18.8811 53.1717 19.2381C53.2824 19.5951 53.2758 19.9782 53.153 20.3312C53.0302 20.6842 52.7975 20.9887 52.4892 21.1999L38.2649 30.9452L43.7479 47.1907C43.8367 47.4537 43.8617 47.7341 43.8208 48.0087C43.7799 48.2832 43.6742 48.5441 43.5126 48.7698C43.3509 48.9955 43.1378 49.1795 42.891 49.3066C42.6442 49.4336 42.3707 49.5002 42.0931 49.5007Z" fill="#FFC23D"/>
</svg>
