<svg width="40" height="40" viewBox="0 0 40 40" fill="none" xmlns="http://www.w3.org/2000/svg">
<g clip-path="url(#clip0_10131_1718)">
<path d="M28.25 18.8141C27.7772 18.6065 27.2664 18.4996 26.75 18.5H13.25C12.7337 18.4995 12.2229 18.6063 11.75 18.8136C11.0817 19.1059 10.5129 19.5865 10.1134 20.1968C9.71377 20.8071 9.50064 21.5205 9.5 22.25V27.5C9.5 27.6989 9.57902 27.8897 9.71967 28.0303C9.86032 28.171 10.0511 28.25 10.25 28.25C10.4489 28.25 10.6397 28.171 10.7803 28.0303C10.921 27.8897 11 27.6989 11 27.5V27.125C11.0012 27.0259 11.0411 26.9312 11.1112 26.8612C11.1812 26.7911 11.2759 26.7512 11.375 26.75H28.625C28.7241 26.7512 28.8188 26.7911 28.8888 26.8612C28.9589 26.9312 28.9988 27.0259 29 27.125V27.5C29 27.6989 29.079 27.8897 29.2197 28.0303C29.3603 28.171 29.5511 28.25 29.75 28.25C29.9489 28.25 30.1397 28.171 30.2803 28.0303C30.421 27.8897 30.5 27.6989 30.5 27.5V22.25C30.4993 21.5206 30.2861 20.8073 29.8865 20.1971C29.4869 19.5869 28.9183 19.1063 28.25 18.8141ZM25.625 11.75H14.375C13.6788 11.75 13.0111 12.0266 12.5188 12.5188C12.0266 13.0111 11.75 13.6788 11.75 14.375V17.75C11.75 17.7791 11.7568 17.8077 11.7698 17.8337C11.7828 17.8597 11.8016 17.8823 11.8249 17.8998C11.8481 17.9172 11.8751 17.929 11.9036 17.9343C11.9322 17.9395 11.9616 17.9381 11.9895 17.93C12.399 17.8102 12.8234 17.7496 13.25 17.75H13.4483C13.4946 17.7503 13.5393 17.7335 13.5739 17.7027C13.6085 17.672 13.6306 17.6296 13.6358 17.5836C13.6767 17.2171 13.8512 16.8786 14.1259 16.6326C14.4006 16.3866 14.7563 16.2504 15.125 16.25H17.75C18.119 16.25 18.475 16.3861 18.75 16.6321C19.025 16.8781 19.1997 17.2169 19.2406 17.5836C19.2458 17.6296 19.2679 17.672 19.3025 17.7027C19.3371 17.7335 19.3818 17.7503 19.4281 17.75H20.5747C20.621 17.7503 20.6657 17.7335 20.7003 17.7027C20.735 17.672 20.757 17.6296 20.7622 17.5836C20.8031 17.2174 20.9773 16.879 21.2517 16.633C21.5261 16.3871 21.8815 16.2507 22.25 16.25H24.875C25.244 16.25 25.6 16.3861 25.875 16.6321C26.15 16.8781 26.3247 17.2169 26.3656 17.5836C26.3708 17.6296 26.3929 17.672 26.4275 17.7027C26.4621 17.7335 26.5068 17.7503 26.5531 17.75H26.75C27.1766 17.7498 27.6011 17.8106 28.0105 17.9305C28.0384 17.9385 28.0679 17.94 28.0965 17.9347C28.1251 17.9295 28.1521 17.9176 28.1753 17.9001C28.1986 17.8826 28.2174 17.8599 28.2304 17.8339C28.2433 17.8078 28.2501 17.7791 28.25 17.75V14.375C28.25 13.6788 27.9734 13.0111 27.4812 12.5188C26.9889 12.0266 26.3212 11.75 25.625 11.75Z" fill="#112211"/>
</g>
<defs>
<clipPath id="clip0_10131_1718">
<rect width="40" height="40" rx="20" fill="white"/>
</clipPath>
</defs>
</svg>
