<svg width="16" height="17" viewBox="0 0 16 17" fill="none" xmlns="http://www.w3.org/2000/svg">
<path d="M12.3127 15.5C12.2074 15.5004 12.1047 15.4676 12.0192 15.4062L8.00015 12.4925L3.98109 15.4062C3.89522 15.4685 3.79178 15.5019 3.68571 15.5015C3.57964 15.5011 3.47643 15.467 3.39103 15.4041C3.30562 15.3412 3.24242 15.2528 3.21058 15.1516C3.17874 15.0504 3.1799 14.9417 3.2139 14.8412L4.7814 10.1984L0.718901 7.41249C0.630904 7.35221 0.56449 7.26537 0.529361 7.16466C0.494232 7.06395 0.492229 6.95464 0.523646 6.85271C0.555063 6.75078 0.618253 6.66157 0.703982 6.59811C0.789712 6.53465 0.893489 6.50027 1.00015 6.49999H6.01203L7.52453 1.8453C7.55711 1.74481 7.62068 1.65722 7.70613 1.5951C7.79158 1.53297 7.89451 1.49951 8.00015 1.49951C8.10579 1.49951 8.20872 1.53297 8.29417 1.5951C8.37962 1.65722 8.44319 1.74481 8.47578 1.8453L9.98828 6.50155H15.0002C15.1069 6.5015 15.211 6.53564 15.2969 6.59898C15.3829 6.66232 15.4464 6.75152 15.478 6.85353C15.5096 6.95554 15.5077 7.06499 15.4726 7.16586C15.4375 7.26672 15.3711 7.3537 15.283 7.41405L11.2189 10.1984L12.7855 14.84C12.8108 14.9151 12.818 14.9952 12.8063 15.0737C12.7946 15.1521 12.7644 15.2267 12.7182 15.2912C12.672 15.3557 12.6112 15.4082 12.5406 15.4445C12.4701 15.4808 12.392 15.4998 12.3127 15.5Z" fill="#FFC23D"/>
</svg>
