<svg width="29" height="28" viewBox="0 0 29 28" fill="none" xmlns="http://www.w3.org/2000/svg">
<path fill-rule="evenodd" clip-rule="evenodd" d="M14.2301 0C21.9543 0 28.216 6.26802 28.216 14C28.216 21.732 21.9543 28 14.2301 28C6.50587 28 0.244141 21.732 0.244141 14C0.244141 6.26802 6.50587 0 14.2301 0ZM13.7245 1.04761C12.1291 1.27238 10.6098 2.55575 9.43038 4.70218C9.08828 5.32478 8.7796 6.01262 8.51061 6.75534C10.1143 6.35189 11.8758 6.11409 13.7245 6.07731V1.04761ZM7.32858 7.09159C7.66308 6.04071 8.07226 5.07388 8.54452 4.21445C9.12916 3.15041 9.823 2.23157 10.6047 1.52584C6.35377 2.76166 3.00303 6.11575 1.76845 10.371C2.47346 9.58844 3.3914 8.89392 4.45438 8.30872C5.31293 7.83602 6.27878 7.42635 7.32858 7.09159ZM6.99264 8.27475C6.58969 9.88002 6.3521 11.6434 6.31536 13.4939H1.2907C1.51525 11.8968 2.79733 10.376 4.9416 9.19551C5.56358 8.85304 6.25073 8.54404 6.99264 8.27475ZM7.32665 13.4939C7.3684 11.4744 7.65879 9.57836 8.13933 7.90316C9.81292 7.42212 11.7072 7.13135 13.7245 7.08954V9.27559C12.9719 11.2043 11.4368 12.7409 9.5099 13.4939H7.32665ZM6.31536 14.5061H1.2907C1.51525 16.1032 2.79733 17.6239 4.9416 18.8045C5.56358 19.147 6.25073 19.4559 6.99264 19.7253C6.58969 18.12 6.3521 16.3566 6.31536 14.5061ZM8.13933 20.0969C7.65879 18.4216 7.3684 16.5256 7.32665 14.5061H9.5099C11.4368 15.2591 12.972 16.7957 13.7245 18.7245V20.9105C11.7072 20.8687 9.81292 20.5778 8.13933 20.0969ZM7.32858 20.9085C6.27878 20.5737 5.31293 20.164 4.45438 19.6913C3.3914 19.1061 2.47346 18.4115 1.76845 17.629C3.00303 21.8842 6.35377 25.2383 10.6047 26.4741C9.823 25.7684 9.12916 24.8496 8.54452 23.7854C8.07226 22.9261 7.66308 21.9593 7.32858 20.9085ZM13.7245 26.9524C12.1291 26.7276 10.6098 25.4442 9.43038 23.2978C9.08828 22.6753 8.7796 21.9873 8.51061 21.2447C10.1143 21.6481 11.8758 21.8859 13.7245 21.9227V26.9524ZM17.8555 26.4741C18.6372 25.7684 19.3311 24.8496 19.9157 23.7854C20.3879 22.9261 20.7971 21.9593 21.1316 20.9085C22.1815 20.5737 23.1472 20.164 24.0058 19.6913C25.0688 19.1061 25.9868 18.4115 26.6917 17.629C25.4571 21.8842 22.1064 25.2383 17.8555 26.4741ZM19.9496 21.2447C19.6805 21.9873 19.3719 22.6753 19.0298 23.2978C17.8505 25.4442 16.3312 26.7276 14.7356 26.9524V21.9227C16.5844 21.8859 18.346 21.6481 19.9496 21.2447ZM21.4675 19.7253C22.2094 19.4559 22.8966 19.147 23.5186 18.8045C25.6628 17.6239 26.9449 16.1032 27.1694 14.5061H22.1449C22.108 16.3566 21.8705 18.12 21.4675 19.7253ZM21.1336 14.5061C21.0919 16.5256 20.8013 18.4216 20.3209 20.0969C18.6473 20.5778 16.7531 20.8687 14.7356 20.9105V18.7261C15.488 16.7966 17.0234 15.2594 18.9509 14.5061H21.1336ZM22.1449 13.4939H27.1694C26.9449 11.8968 25.6628 10.376 23.5186 9.19551C22.8966 8.85304 22.2094 8.54404 21.4675 8.27475C21.8705 9.88002 22.108 11.6434 22.1449 13.4939ZM20.3209 7.90316C20.8013 9.57836 21.0919 11.4744 21.1336 13.4939H18.9509C17.0234 12.7406 15.488 11.2034 14.7356 9.27397V7.08954C16.7531 7.13135 18.6473 7.42212 20.3209 7.90316ZM21.1316 7.09159C22.1815 7.42635 23.1472 7.83602 24.0058 8.30872C25.0688 8.89392 25.9868 9.58844 26.6917 10.371C25.4571 6.11575 22.1064 2.76166 17.8555 1.52584C18.6372 2.23157 19.3311 3.15041 19.9157 4.21445C20.3879 5.07388 20.7971 6.04071 21.1316 7.09159ZM14.7356 1.04761C16.3312 1.27238 17.8505 2.55575 19.0298 4.70218C19.3719 5.32479 19.6805 6.01262 19.9496 6.75534C18.346 6.35189 16.5844 6.11409 14.7356 6.07731V1.04761Z" fill="#0B3B2D"/>
</svg>
