<svg viewBox="0 0 20 20" fill="none" xmlns="http://www.w3.org/2000/svg">
  <path d="M10.2707 1.06689C10.162 0.839265 9.83799 0.839265 9.72928 1.06689L7.16594 6.43467C7.12297 6.52464 7.03812 6.58739 6.9395 6.60211L1.0893 7.4751C0.84556 7.51147 0.747211 7.80993 0.921583 7.98408L5.14053 12.1976C5.20921 12.2662 5.24046 12.3638 5.2244 12.4595L4.22835 18.3961C4.18708 18.6422 4.44661 18.8281 4.6663 18.71L9.85791 15.9182C9.94663 15.8705 10.0534 15.8705 10.1421 15.9182L15.3337 18.71C15.5534 18.8281 15.8129 18.6422 15.7716 18.3961L14.7756 12.4597C14.7595 12.3639 14.7909 12.2662 14.8596 12.1976L19.0783 7.99024C19.2527 7.81625 19.1547 7.51776 18.911 7.48116L13.0603 6.60223C12.9618 6.58744 12.8771 6.52472 12.8341 6.43484L10.2707 1.06689Z" fill="#fa9200"/>
</svg>