<svg width="54" height="50" viewBox="0 0 54 50" fill="none" xmlns="http://www.w3.org/2000/svg">
<path d="M42.0913 48.5007L42.0892 48.5007C41.932 48.5013 41.7787 48.4526 41.6508 48.3614C41.6502 48.3609 41.6496 48.3605 41.649 48.3601L27.5863 38.1648L26.9993 37.7393L26.4124 38.1648L12.3456 48.3629L12.3455 48.3631C12.2167 48.4565 12.0615 48.5065 11.9024 48.5059C11.7433 48.5054 11.5885 48.4542 11.4604 48.3598C11.3323 48.2655 11.2375 48.1328 11.1897 47.9811C11.1419 47.8293 11.1437 47.6663 11.1947 47.5156L11.1949 47.5149L16.6811 31.2651L16.9231 30.5483L16.2992 30.1205L2.08049 20.3697L2.08006 20.3694C1.94807 20.279 1.84844 20.1488 1.79575 19.9977C1.74306 19.8466 1.74005 19.6827 1.78718 19.5298C1.8343 19.3769 1.92909 19.2431 2.05768 19.1479C2.18598 19.0529 2.34121 19.0013 2.50081 19.0007H20.0409H20.7674L20.9919 18.3097L26.2857 2.01832L26.2859 2.01771C26.3347 1.86697 26.4301 1.73558 26.5583 1.6424C26.6865 1.54921 26.8409 1.49902 26.9993 1.49902C27.1578 1.49902 27.3122 1.54922 27.4403 1.6424C27.5685 1.73558 27.6639 1.86697 27.7128 2.01771L27.7129 2.01823L33.0067 18.3151L33.2311 19.0062H33.9578H51.4993H51.4998C51.66 19.0061 51.816 19.0573 51.945 19.1523C52.074 19.2473 52.1691 19.3811 52.2166 19.5341L53.1717 19.2381L52.2166 19.5341C52.264 19.6871 52.2612 19.8513 52.2085 20.0026C52.1559 20.1539 52.0562 20.2844 51.924 20.3749L51.924 20.3749L37.6997 30.1203L37.0754 30.548L37.3174 31.265L42.8004 47.5105L42.8005 47.5107C42.8386 47.6234 42.8493 47.7436 42.8317 47.8612C42.8142 47.9789 42.7689 48.0907 42.6996 48.1875C42.6303 48.2842 42.539 48.363 42.4332 48.4175C42.3275 48.472 42.2102 48.5005 42.0913 48.5007Z" stroke="#112211" stroke-width="2"/>
</svg>
